<svg width="1539" height="1539" viewBox="0 0 1539 1539" fill="none" xmlns="http://www.w3.org/2000/svg">
<rect width="1539" height="1539" fill="#E5E5E5"/>
<rect width="1539" height="1539" rx="27" fill="white"/>
<path d="M893.062 769.5H1057.12V898.786C1057.12 970.095 998.268 1028.07 925.875 1028.07H909.469C882.193 1028.07 860.25 1049.69 860.25 1076.55V1173.52C860.25 1200.39 882.193 1222 909.469 1222H925.875C1107.16 1222 1254 1077.36 1254 898.786V413.964C1254 360.432 1209.91 317 1155.56 317H893.062C838.717 317 794.625 360.432 794.625 413.964V672.536C794.625 726.068 838.717 769.5 893.062 769.5ZM644.938 769.5H480.875V640.214C480.875 568.905 539.732 510.929 612.125 510.929H628.531C655.807 510.929 677.75 489.314 677.75 462.446V365.482C677.75 338.615 655.807 317 628.531 317H612.125C430.836 317 284 461.638 284 640.214V1125.04C284 1178.57 328.092 1222 382.438 1222H644.938C699.283 1222 743.375 1178.57 743.375 1125.04V866.464C743.375 812.932 699.283 769.5 644.938 769.5Z" fill="black"/>
<path d="M631.296 955.082L626.119 964.078C624.225 967.412 620.185 968.796 616.586 967.475C609.137 964.707 602.319 960.744 596.322 955.774C593.418 953.384 592.66 949.169 594.554 945.898L599.731 936.902C595.375 931.869 591.966 926.019 589.693 919.665H579.276C575.489 919.665 572.206 916.96 571.575 913.186C570.312 905.637 570.249 897.711 571.575 889.847C572.206 886.073 575.489 883.305 579.276 883.305H589.693C591.966 876.951 595.375 871.101 599.731 866.068L594.554 857.073C592.66 853.801 593.355 849.587 596.322 847.196C602.319 842.227 609.2 838.263 616.586 835.495C620.185 834.174 624.225 835.558 626.119 838.892L631.296 847.888C637.924 846.693 644.679 846.693 651.308 847.888L656.485 838.892C658.379 835.558 662.419 834.174 666.017 835.495C673.467 838.263 680.285 842.227 686.282 847.196C689.186 849.587 689.944 853.801 688.05 857.073L682.873 866.068C687.229 871.101 690.638 876.951 692.911 883.305H703.327C707.115 883.305 710.398 886.01 711.029 889.784C712.292 897.333 712.355 905.26 711.029 913.123C710.398 916.897 707.115 919.665 703.327 919.665H692.911C690.638 926.019 687.229 931.869 682.873 936.902L688.05 945.898C689.944 949.169 689.249 953.384 686.282 955.774C680.285 960.744 673.404 964.707 666.017 967.475C662.419 968.796 658.379 967.412 656.485 964.078L651.308 955.082C644.742 956.277 637.924 956.277 631.296 955.082ZM624.667 918.093C648.972 936.713 676.686 909.097 658 884.878C633.695 866.194 605.981 893.873 624.667 918.093ZM551.878 1014.91L573.153 1025.48C579.529 1029.12 582.307 1036.86 579.781 1043.78C574.163 1059 563.115 1072.97 552.888 1085.17C548.216 1090.77 540.136 1092.16 533.76 1088.51L515.389 1077.94C505.288 1086.56 493.546 1093.42 480.73 1097.88V1119.02C480.73 1126.32 475.49 1132.61 468.294 1133.86C452.763 1136.51 436.476 1136.63 420.378 1133.86C413.118 1132.61 407.752 1126.38 407.752 1119.02V1097.88C394.936 1093.35 383.194 1086.56 373.093 1077.94L354.722 1088.45C348.409 1092.09 340.265 1090.71 335.594 1085.11C325.367 1072.91 314.571 1058.94 308.953 1043.78C306.428 1036.92 309.205 1029.19 315.582 1025.48L336.604 1014.91C334.142 1001.76 334.142 988.234 336.604 975.024L315.582 964.392C309.205 960.744 306.365 953.006 308.953 946.149C314.571 930.926 325.367 916.96 335.594 904.756C340.265 899.158 348.346 897.774 354.722 901.422L373.093 911.991C383.194 903.372 394.936 896.515 407.752 892.049V870.849C407.752 863.615 412.928 857.324 420.125 856.066C435.655 853.424 452.006 853.298 468.104 856.003C475.364 857.261 480.73 863.489 480.73 870.849V891.986C493.546 896.515 505.288 903.309 515.389 911.928L533.76 901.359C540.073 897.711 548.216 899.095 552.888 904.693C563.115 916.897 573.847 930.863 579.466 946.086C581.991 952.943 579.529 960.681 573.153 964.392L551.878 974.961C554.34 988.171 554.34 1001.7 551.878 1014.91ZM477.637 1028.18C515.01 979.742 459.518 924.446 410.908 961.687C373.535 1010.13 429.027 1065.42 477.637 1028.18ZM631.296 1143.11L626.119 1152.11C624.225 1155.44 620.185 1156.83 616.586 1155.5C609.137 1152.74 602.319 1148.77 596.322 1143.8C593.418 1141.41 592.66 1137.2 594.554 1133.93L599.731 1124.93C595.375 1119.9 591.966 1114.05 589.693 1107.7H579.276C575.489 1107.7 572.206 1104.99 571.575 1101.22C570.312 1093.67 570.249 1085.74 571.575 1077.88C572.206 1074.1 575.489 1071.33 579.276 1071.33H589.693C591.966 1064.98 595.375 1059.13 599.731 1054.1L594.554 1045.1C592.66 1041.83 593.355 1037.62 596.322 1035.23C602.319 1030.26 609.2 1026.29 616.586 1023.53C620.185 1022.2 624.225 1023.59 626.119 1026.92L631.296 1035.92C637.924 1034.72 644.679 1034.72 651.308 1035.92L656.485 1026.92C658.379 1023.59 662.419 1022.2 666.017 1023.53C673.467 1026.29 680.285 1030.26 686.282 1035.23C689.186 1037.62 689.944 1041.83 688.05 1045.1L682.873 1054.1C687.229 1059.13 690.638 1064.98 692.911 1071.33H703.327C707.115 1071.33 710.398 1074.04 711.029 1077.81C712.292 1085.36 712.355 1093.29 711.029 1101.15C710.398 1104.93 707.115 1107.7 703.327 1107.7H692.911C690.638 1114.05 687.229 1119.9 682.873 1124.93L688.05 1133.93C689.944 1137.2 689.249 1141.41 686.282 1143.8C680.285 1148.77 673.404 1152.74 666.017 1155.5C662.419 1156.83 658.379 1155.44 656.485 1152.11L651.308 1143.11C644.742 1144.31 637.924 1144.31 631.296 1143.11ZM624.667 1106.06C648.972 1124.68 676.686 1097.06 658 1072.84C633.695 1054.22 605.981 1081.84 624.667 1106.06Z" fill="white"/>
<path d="M1147.3 492.082L1142.12 501.078C1140.23 504.412 1136.18 505.796 1132.59 504.475C1125.14 501.707 1118.32 497.744 1112.32 492.774C1109.42 490.384 1108.66 486.169 1110.55 482.898L1115.73 473.902C1111.37 468.869 1107.97 463.019 1105.69 456.665H1095.28C1091.49 456.665 1088.21 453.96 1087.57 450.186C1086.31 442.637 1086.25 434.711 1087.57 426.847C1088.21 423.073 1091.49 420.305 1095.28 420.305H1105.69C1107.97 413.951 1111.37 408.101 1115.73 403.068L1110.55 394.073C1108.66 390.801 1109.35 386.587 1112.32 384.196C1118.32 379.227 1125.2 375.263 1132.59 372.495C1136.18 371.174 1140.23 372.558 1142.12 375.892L1147.3 384.888C1153.92 383.693 1160.68 383.693 1167.31 384.888L1172.48 375.892C1174.38 372.558 1178.42 371.174 1182.02 372.495C1189.47 375.263 1196.28 379.227 1202.28 384.196C1205.19 386.587 1205.94 390.801 1204.05 394.073L1198.87 403.068C1203.23 408.101 1206.64 413.951 1208.91 420.305H1219.33C1223.12 420.305 1226.4 423.01 1227.03 426.784C1228.29 434.333 1228.35 442.26 1227.03 450.123C1226.4 453.897 1223.12 456.665 1219.33 456.665H1208.91C1206.64 463.019 1203.23 468.869 1198.87 473.902L1204.05 482.898C1205.94 486.169 1205.25 490.384 1202.28 492.774C1196.28 497.744 1189.4 501.707 1182.02 504.475C1178.42 505.796 1174.38 504.412 1172.48 501.078L1167.31 492.082C1160.74 493.277 1153.92 493.277 1147.3 492.082ZM1140.67 455.093C1164.97 473.713 1192.69 446.097 1174 421.878C1149.69 403.194 1121.98 430.873 1140.67 455.093ZM1067.88 551.907L1089.15 562.475C1095.53 566.124 1098.31 573.861 1095.78 580.781C1090.16 596.005 1079.12 609.97 1068.89 622.174C1064.22 627.773 1056.14 629.157 1049.76 625.508L1031.39 614.94C1021.29 623.558 1009.55 630.415 996.73 634.881V656.018C996.73 663.316 991.49 669.606 984.294 670.864C968.763 673.507 952.476 673.632 936.378 670.864C929.118 669.606 923.752 663.378 923.752 656.018V634.881C910.936 630.352 899.194 623.558 889.093 614.94L870.722 625.445C864.409 629.094 856.265 627.71 851.594 622.111C841.367 609.907 830.571 595.942 824.953 580.781C822.428 573.924 825.205 566.187 831.582 562.475L852.604 551.907C850.142 538.759 850.142 525.234 852.604 512.024L831.582 501.392C825.205 497.744 822.365 490.006 824.953 483.149C830.571 467.926 841.367 453.96 851.594 441.756C856.265 436.158 864.346 434.774 870.722 438.422L889.093 448.991C899.194 440.372 910.936 433.515 923.752 429.049V407.849C923.752 400.615 928.928 394.324 936.125 393.066C951.655 390.424 968.006 390.298 984.104 393.003C991.364 394.261 996.73 400.489 996.73 407.849V428.986C1009.55 433.515 1021.29 440.309 1031.39 448.928L1049.76 438.359C1056.07 434.711 1064.22 436.095 1068.89 441.693C1079.12 453.897 1089.85 467.863 1095.47 483.086C1097.99 489.943 1095.53 497.681 1089.15 501.392L1067.88 511.961C1070.34 525.171 1070.34 538.696 1067.88 551.907ZM993.637 565.18C1031.01 516.742 975.518 461.446 926.908 498.687C889.535 547.126 945.027 602.421 993.637 565.18ZM1147.3 680.112L1142.12 689.108C1140.23 692.442 1136.18 693.826 1132.59 692.505C1125.14 689.737 1118.32 685.773 1112.32 680.804C1109.42 678.413 1108.66 674.199 1110.55 670.927L1115.73 661.932C1111.37 656.899 1107.97 651.049 1105.69 644.695H1095.28C1091.49 644.695 1088.21 641.99 1087.57 638.216C1086.31 630.667 1086.25 622.74 1087.57 614.877C1088.21 611.103 1091.49 608.335 1095.28 608.335H1105.69C1107.97 601.981 1111.37 596.131 1115.73 591.098L1110.55 582.102C1108.66 578.831 1109.35 574.616 1112.32 572.226C1118.32 567.256 1125.2 563.293 1132.59 560.525C1136.18 559.204 1140.23 560.588 1142.12 563.922L1147.3 572.918C1153.92 571.723 1160.68 571.723 1167.31 572.918L1172.48 563.922C1174.38 560.588 1178.42 559.204 1182.02 560.525C1189.47 563.293 1196.28 567.256 1202.28 572.226C1205.19 574.616 1205.94 578.831 1204.05 582.102L1198.87 591.098C1203.23 596.131 1206.64 601.981 1208.91 608.335H1219.33C1223.12 608.335 1226.4 611.04 1227.03 614.814C1228.29 622.363 1228.35 630.289 1227.03 638.153C1226.4 641.927 1223.12 644.695 1219.33 644.695H1208.91C1206.64 651.049 1203.23 656.899 1198.87 661.932L1204.05 670.927C1205.94 674.199 1205.25 678.413 1202.28 680.804C1196.28 685.773 1189.4 689.737 1182.02 692.505C1178.42 693.826 1174.38 692.442 1172.48 689.108L1167.31 680.112C1160.74 681.307 1153.92 681.307 1147.3 680.112ZM1140.67 643.059C1164.97 661.68 1192.69 634.064 1174 609.844C1149.69 591.224 1121.98 618.84 1140.67 643.059Z" fill="white"/>
</svg>
